<svg version="1.1" viewBox="0.0 0.0 960.0 540.0" fill="none" stroke="none" stroke-linecap="square" stroke-miterlimit="10" xmlns:xlink="http://www.w3.org/1999/xlink" xmlns="http://www.w3.org/2000/svg"><clipPath id="p.0"><path d="m0 0l960.0 0l0 540.0l-960.0 0l0 -540.0z" clip-rule="nonzero"/></clipPath><g clip-path="url(#p.0)"><path fill="#ffffff" d="m0 0l960.0 0l0 540.0l-960.0 0z" fill-rule="evenodd"/><path fill="#000000" fill-opacity="0.0" d="m32.725285 78.1706l894.55115 0l0 215.49606l-894.55115 0z" fill-rule="evenodd"/><path fill="#434343" d="m154.75476 219.9798l6.71875 0l0 48.046875l-6.71875 0l0 -48.046875zm18.227371 13.03125q2.21875 -0.546875 5.890625 -1.171875q3.671875 -0.625 8.453125 -0.625q4.3125 0 7.140625 1.21875q2.84375 1.203125 4.546875 3.390625q1.703125 2.1875 2.390625 5.234375q0.6875 3.046875 0.6875 6.71875l0 20.25l-6.4375 0l0 -18.859375q0 -3.328125 -0.453125 -5.6875q-0.453125 -2.359375 -1.5 -3.8125q-1.03125 -1.453125 -2.765625 -2.109375q-1.734375 -0.65625 -4.296875 -0.65625q-1.046875 0 -2.15625 0.078125q-1.09375 0.0625 -2.109375 0.171875q-1.0 0.09375 -1.796875 0.234375q-0.796875 0.140625 -1.140625 0.203125l0 30.4375l-6.453125 0l0 -35.015625zm45.82556 -1.03125l13.65625 0l0 5.40625l-13.65625 0l0 16.640625q0 2.703125 0.40625 4.46875q0.421875 1.765625 1.25 2.78125q0.84375 1.0 2.078125 1.421875q1.25 0.40625 2.921875 0.40625q2.90625 0 4.671875 -0.65625q1.78125 -0.65625 2.46875 -0.9375l1.25 5.34375q-0.96875 0.484375 -3.40625 1.203125q-2.421875 0.734375 -5.546875 0.734375q-3.671875 0 -6.0625 -0.9375q-2.390625 -0.9375 -3.84375 -2.8125q-1.453125 -1.875 -2.046875 -4.609375q-0.59375 -2.734375 -0.59375 -6.34375l0 -32.171875l6.453125 -1.109375l0 11.171875zm35.15114 -0.765625q0.828125 0 1.90625 0.109375q1.078125 0.09375 2.109375 0.265625q1.046875 0.171875 1.90625 0.359375q0.875 0.171875 1.28125 0.3125l-1.109375 5.609375q-0.75 -0.28125 -2.53125 -0.65625q-1.765625 -0.390625 -4.53125 -0.390625q-1.8125 0 -3.578125 0.390625q-1.765625 0.375 -2.3125 0.515625l0 30.296875l-6.453125 0l0 -34.53125q2.28125 -0.828125 5.671875 -1.546875q3.40625 -0.734375 7.640625 -0.734375zm45.276276 18.78125q0 4.296875 -1.25 7.765625q-1.25 3.46875 -3.515625 5.96875q-2.25 2.5 -5.375 3.859375q-3.109375 1.34375 -6.78125 1.34375q-3.671875 0 -6.796875 -1.34375q-3.125 -1.359375 -5.375 -3.859375q-2.25 -2.5 -3.5 -5.96875q-1.25 -3.46875 -1.25 -7.765625q0 -4.21875 1.25 -7.71875q1.25 -3.5 3.5 -6.0q2.25 -2.5 5.375 -3.84375q3.125 -1.359375 6.796875 -1.359375q3.671875 0 6.78125 1.359375q3.125 1.34375 5.375 3.84375q2.265625 2.5 3.515625 6.0q1.25 3.5 1.25 7.71875zm-6.734375 0q0 -6.09375 -2.734375 -9.65625q-2.734375 -3.578125 -7.453125 -3.578125q-4.71875 0 -7.453125 3.578125q-2.734375 3.5625 -2.734375 9.65625q0 6.109375 2.734375 9.6875q2.734375 3.5625 7.453125 3.5625q4.71875 0 7.453125 -3.5625q2.734375 -3.578125 2.734375 -9.6875zm39.10669 -10.390625q-1.1875 -0.96875 -3.40625 -1.875q-2.21875 -0.90625 -4.84375 -0.90625q-2.78125 0 -4.765625 1.015625q-1.96875 1.0 -3.21875 2.765625q-1.234375 1.765625 -1.796875 4.203125q-0.546875 2.421875 -0.546875 5.1875q0 6.3125 3.109375 9.75q3.125 3.421875 8.328125 3.421875q2.625 0 4.390625 -0.234375q1.78125 -0.25 2.75 -0.515625l0 -22.8125zm0 -24.265625l6.4375 -1.109375l0 52.75q-2.21875 0.625 -5.6875 1.25q-3.453125 0.625 -7.96875 0.625q-4.15625 0 -7.484375 -1.3125q-3.328125 -1.3125 -5.6875 -3.734375q-2.359375 -2.4375 -3.640625 -5.9375q-1.28125 -3.5 -1.28125 -7.875q0 -4.15625 1.078125 -7.625q1.078125 -3.46875 3.15625 -5.953125q2.078125 -2.5 5.09375 -3.875q3.015625 -1.390625 6.90625 -1.390625q3.109375 0 5.5 0.828125q2.390625 0.828125 3.578125 1.59375l0 -18.234375zm46.24048 51.640625q-2.21875 0.5625 -5.859375 1.1875q-3.640625 0.625 -8.421875 0.625q-4.15625 0 -7.0 -1.203125q-2.84375 -1.21875 -4.578125 -3.4375q-1.734375 -2.21875 -2.5 -5.234375q-0.765625 -3.015625 -0.765625 -6.703125l0 -20.234375l6.453125 0l0 18.859375q0 6.578125 2.078125 9.421875q2.078125 2.84375 7.0 2.84375q1.046875 0 2.15625 -0.0625q1.109375 -0.078125 2.078125 -0.171875q0.96875 -0.109375 1.765625 -0.21875q0.796875 -0.109375 1.140625 -0.234375l0 -30.4375l6.453125 0l0 35.0zm26.763062 1.875q-4.375 0 -7.671875 -1.375q-3.28125 -1.390625 -5.546875 -3.890625q-2.25 -2.5 -3.359375 -5.921875q-1.109375 -3.4375 -1.109375 -7.59375q0 -4.15625 1.21875 -7.625q1.21875 -3.46875 3.4375 -6.0q2.21875 -2.53125 5.4375 -3.953125q3.21875 -1.421875 7.171875 -1.421875q2.421875 0 4.84375 0.421875q2.4375 0.40625 4.65625 1.3125l-1.453125 5.484375q-1.453125 -0.703125 -3.359375 -1.109375q-1.90625 -0.421875 -4.0625 -0.421875q-5.40625 0 -8.28125 3.40625q-2.875 3.390625 -2.875 9.90625q0 2.90625 0.65625 5.34375q0.65625 2.421875 2.078125 4.15625q1.421875 1.734375 3.640625 2.671875q2.21875 0.921875 5.40625 0.921875q2.5625 0 4.640625 -0.484375q2.078125 -0.484375 3.265625 -1.03125l0.890625 5.40625q-0.546875 0.34375 -1.59375 0.65625q-1.03125 0.3125 -2.359375 0.546875q-1.3125 0.25 -2.8125 0.421875q-1.484375 0.171875 -2.859375 0.171875zm23.018799 -0.828125l-6.453125 0l0 -36.046875l6.453125 0l0 36.046875zm-3.265625 -42.5625q-1.734375 0 -2.953125 -1.140625q-1.203125 -1.15625 -1.203125 -3.09375q0 -1.9375 1.203125 -3.078125q1.21875 -1.15625 2.953125 -1.15625q1.734375 0 2.9375 1.15625q1.21875 1.140625 1.21875 3.078125q0 1.9375 -1.21875 3.09375q-1.203125 1.140625 -2.9375 1.140625zm14.352509 7.546875q2.21875 -0.546875 5.890625 -1.171875q3.671875 -0.625 8.453125 -0.625q4.3125 0 7.140625 1.21875q2.84375 1.203125 4.546875 3.390625q1.703125 2.1875 2.390625 5.234375q0.6875 3.046875 0.6875 6.71875l0 20.25l-6.4375 0l0 -18.859375q0 -3.328125 -0.453125 -5.6875q-0.453125 -2.359375 -1.5 -3.8125q-1.03125 -1.453125 -2.765625 -2.109375q-1.734375 -0.65625 -4.296875 -0.65625q-1.046875 0 -2.15625 0.078125q-1.09375 0.0625 -2.109375 0.171875q-1.0 0.09375 -1.796875 0.234375q-0.796875 0.140625 -1.140625 0.203125l0 30.4375l-6.453125 0l0 -35.015625zm62.38806 31.40625q-0.828125 0.5625 -3.21875 1.4375q-2.390625 0.859375 -5.578125 0.859375q-3.265625 0 -6.140625 -1.03125q-2.875 -1.046875 -5.03125 -3.234375q-2.140625 -2.1875 -3.390625 -5.4375q-1.25 -3.265625 -1.25 -7.765625q0 -3.953125 1.171875 -7.25q1.1875 -3.296875 3.4375 -5.6875q2.265625 -2.390625 5.515625 -3.734375q3.265625 -1.359375 7.34375 -1.359375q4.515625 0 7.875 0.65625q3.359375 0.65625 5.65625 1.21875l0 32.171875q0 8.3125 -4.3125 12.046875q-4.296875 3.75 -13.03125 3.75q-3.390625 0 -6.40625 -0.5625q-3.015625 -0.546875 -5.234375 -1.3125l1.171875 -5.609375q1.953125 0.765625 4.75 1.34375q2.8125 0.59375 5.859375 0.59375q5.765625 0 8.28125 -2.296875q2.53125 -2.28125 2.53125 -7.265625l0 -1.53125zm-0.0625 -26.75q-0.96875 -0.28125 -2.609375 -0.515625q-1.625 -0.25 -4.390625 -0.25q-5.203125 0 -8.015625 3.40625q-2.796875 3.390625 -2.796875 9.0q0 3.125 0.796875 5.34375q0.796875 2.21875 2.140625 3.671875q1.359375 1.453125 3.125 2.15625q1.765625 0.6875 3.640625 0.6875q2.5625 0 4.703125 -0.71875q2.15625 -0.734375 3.40625 -1.71875l0 -21.0625zm62.88327 24.53125l0 5.828125l-28.90625 0l0 -48.046875l6.71875 0l0 42.21875l22.1875 0zm13.106262 5.828125l-6.453125 0l0 -36.046875l6.453125 0l0 36.046875zm-3.265625 -42.5625q-1.734375 0 -2.953125 -1.140625q-1.203125 -1.15625 -1.203125 -3.09375q0 -1.9375 1.203125 -3.078125q1.21875 -1.15625 2.953125 -1.15625q1.734375 0 2.9375 1.15625q1.21875 1.140625 1.21875 3.078125q0 1.9375 -1.21875 3.09375q-1.203125 1.140625 -2.9375 1.140625zm14.352478 7.546875q2.21875 -0.546875 5.890625 -1.171875q3.671875 -0.625 8.453125 -0.625q4.3125 0 7.140625 1.21875q2.84375 1.203125 4.546875 3.390625q1.703125 2.1875 2.390625 5.234375q0.6875 3.046875 0.6875 6.71875l0 20.25l-6.4375 0l0 -18.859375q0 -3.328125 -0.453125 -5.6875q-0.453125 -2.359375 -1.5 -3.8125q-1.03125 -1.453125 -2.765625 -2.109375q-1.734375 -0.65625 -4.296875 -0.65625q-1.046875 0 -2.15625 0.078125q-1.09375 0.0625 -2.109375 0.171875q-1.0 0.09375 -1.796875 0.234375q-0.796875 0.140625 -1.140625 0.203125l0 30.4375l-6.453125 0l0 -35.015625zm68.49744 33.96875q-2.21875 0.5625 -5.859375 1.1875q-3.640625 0.625 -8.421875 0.625q-4.15625 0 -7.0 -1.203125q-2.84375 -1.21875 -4.578125 -3.4375q-1.734375 -2.21875 -2.5 -5.234375q-0.765625 -3.015625 -0.765625 -6.703125l0 -20.234375l6.453125 0l0 18.859375q0 6.578125 2.078125 9.421875q2.078125 2.84375 7.0 2.84375q1.046875 0 2.15625 -0.0625q1.109375 -0.078125 2.078125 -0.171875q0.96875 -0.109375 1.765625 -0.21875q0.796875 -0.109375 1.140625 -0.234375l0 -30.4375l6.453125 0l0 35.0zm32.653748 1.046875q-0.765625 -1.53125 -1.875 -3.390625q-1.109375 -1.875 -2.4375 -3.84375q-1.3125 -1.984375 -2.703125 -3.921875q-1.375 -1.953125 -2.6875 -3.6875q-1.328125 1.734375 -2.71875 3.71875q-1.375 1.96875 -2.65625 3.953125q-1.28125 1.96875 -2.390625 3.84375q-1.109375 1.875 -1.875 3.328125l-6.65625 0q2.421875 -4.71875 5.78125 -9.59375q3.375 -4.890625 6.703125 -9.328125l-11.9375 -17.125l7.28125 0l8.609375 12.609375l8.65625 -12.609375l6.859375 0l-11.640625 16.703125q3.328125 4.5 6.828125 9.53125q3.5 5.03125 5.921875 9.8125l-7.0625 0zm50.95703 1.046875q-5.0625 0 -9.234375 -1.65625q-4.15625 -1.671875 -7.140625 -4.859375q-2.96875 -3.203125 -4.609375 -7.875q-1.625 -4.6875 -1.625 -10.71875q0 -6.03125 1.84375 -10.703125q1.84375 -4.6875 4.953125 -7.875q3.125 -3.1875 7.28125 -4.84375q4.15625 -1.671875 8.875 -1.671875q2.984375 0 5.375 0.421875q2.390625 0.40625 4.15625 0.96875q1.765625 0.546875 2.875 1.109375q1.109375 0.546875 1.53125 0.828125l-1.9375 5.546875q-0.625 -0.421875 -1.8125 -0.90625q-1.171875 -0.484375 -2.671875 -0.96875q-1.484375 -0.484375 -3.25 -0.796875q-1.765625 -0.3125 -3.578125 -0.3125q-3.8125 0 -6.859375 1.328125q-3.046875 1.3125 -5.203125 3.8125q-2.140625 2.484375 -3.296875 6.0625q-1.140625 3.5625 -1.140625 8.0q0 4.296875 1.0 7.84375q1.015625 3.53125 3.015625 6.0625q2.015625 2.53125 5.03125 3.921875q3.015625 1.375 7.046875 1.375q4.640625 0 7.6875 -0.96875q3.046875 -0.96875 4.578125 -1.734375l1.734375 5.546875q-0.484375 0.359375 -1.734375 0.875q-1.25 0.515625 -3.125 1.0q-1.859375 0.484375 -4.359375 0.828125q-2.5 0.359375 -5.40625 0.359375zm51.2334 -6.875l0 5.828125l-28.90625 0l0 -48.046875l6.71875 0l0 42.21875l22.1875 0zm7.075012 -42.21875l6.71875 0l0 48.046875l-6.71875 0l0 -48.046875z" fill-rule="nonzero"/><path fill="#000000" fill-opacity="0.0" d="m32.72441 297.54593l894.55115 0l0 83.212616l-894.55115 0z" fill-rule="evenodd"/><path fill="#434343" d="m255.5671 329.4328q0 3.359375 -1.046875 5.84375q-1.046875 2.484375 -2.953125 4.109375q-1.90625 1.625 -4.5625 2.421875q-2.640625 0.796875 -5.8125 0.796875q-1.5625 0 -3.453125 -0.125q-1.890625 -0.125 -3.421875 -0.5l0 -25.09375q1.53125 -0.375 3.421875 -0.5q1.890625 -0.125 3.453125 -0.125q3.171875 0 5.8125 0.796875q2.65625 0.796875 4.5625 2.421875q1.90625 1.625 2.953125 4.109375q1.046875 2.484375 1.046875 5.84375zm-14.078125 10.0q5.15625 0 7.6875 -2.625q2.546875 -2.640625 2.546875 -7.375q0 -4.734375 -2.546875 -7.359375q-2.53125 -2.640625 -7.6875 -2.640625q-1.53125 0 -2.375 0.046875q-0.828125 0.03125 -1.171875 0.0625l0 19.78125q0.34375 0.03125 1.171875 0.078125q0.84375 0.03125 2.375 0.03125zm19.224411 -15.890625q1.203125 -0.3125 3.15625 -0.640625q1.953125 -0.34375 4.53125 -0.34375q1.875 0 3.140625 0.515625q1.265625 0.5 2.125 1.46875q0.265625 -0.1875 0.8125 -0.515625q0.5625 -0.34375 1.390625 -0.65625q0.828125 -0.328125 1.828125 -0.5625q1.015625 -0.25 2.171875 -0.25q2.234375 0 3.65625 0.65625q1.421875 0.65625 2.21875 1.859375q0.796875 1.1875 1.078125 2.828125q0.28125 1.640625 0.28125 3.578125l0 10.90625l-3.46875 0l0 -10.15625q0 -1.71875 -0.171875 -2.9375q-0.171875 -1.234375 -0.640625 -2.046875q-0.453125 -0.828125 -1.265625 -1.21875q-0.796875 -0.40625 -2.0625 -0.40625q-1.75 0 -2.890625 0.46875q-1.140625 0.46875 -1.5625 0.84375q0.3125 0.96875 0.453125 2.125q0.15625 1.15625 0.15625 2.421875l0 10.90625l-3.46875 0l0 -10.15625q0 -1.71875 -0.1875 -2.9375q-0.1875 -1.234375 -0.65625 -2.046875q-0.46875 -0.828125 -1.28125 -1.21875q-0.796875 -0.40625 -2.03125 -0.40625q-0.515625 0 -1.125 0.046875q-0.59375 0.03125 -1.140625 0.09375q-0.53125 0.046875 -0.984375 0.125q-0.4375 0.078125 -0.59375 0.109375l0 16.390625l-3.46875 0l0 -18.84375zm29.18637 22.46875q0.421875 0.1875 1.0625 0.34375q0.65625 0.171875 1.296875 0.171875q2.046875 0 3.203125 -0.921875q1.15625 -0.90625 2.09375 -2.953125q-2.34375 -4.484375 -4.390625 -9.5q-2.03125 -5.03125 -3.375 -10.171875l3.734375 0q0.40625 1.671875 0.984375 3.625q0.578125 1.9375 1.28125 3.984375q0.71875 2.046875 1.53125 4.109375q0.828125 2.046875 1.734375 3.953125q1.40625 -3.921875 2.453125 -7.765625q1.046875 -3.84375 1.984375 -7.90625l3.578125 0q-1.34375 5.484375 -2.984375 10.546875q-1.640625 5.046875 -3.546875 9.453125q-0.75 1.6875 -1.546875 2.890625q-0.796875 1.21875 -1.765625 2.0q-0.96875 0.78125 -2.1875 1.15625q-1.21875 0.375 -2.75 0.375q-0.40625 0 -0.859375 -0.0625q-0.4375 -0.046875 -0.875 -0.140625q-0.421875 -0.09375 -0.78125 -0.203125q-0.359375 -0.109375 -0.5 -0.1875l0.625 -2.796875zm24.083374 -23.03125l7.359375 0l0 2.90625l-7.359375 0l0 8.953125q0 1.46875 0.21875 2.421875q0.234375 0.9375 0.671875 1.484375q0.453125 0.546875 1.125 0.765625q0.671875 0.21875 1.5625 0.21875q1.578125 0 2.515625 -0.34375q0.953125 -0.359375 1.328125 -0.515625l0.671875 2.875q-0.515625 0.265625 -1.828125 0.65625q-1.296875 0.390625 -2.984375 0.390625q-1.96875 0 -3.265625 -0.5q-1.28125 -0.5 -2.078125 -1.5q-0.78125 -1.015625 -1.09375 -2.484375q-0.3125 -1.484375 -0.3125 -3.421875l0 -17.328125l3.46875 -0.59375l0 6.015625zm18.927826 -0.421875q0.4375 0 1.015625 0.0625q0.59375 0.0625 1.140625 0.15625q0.5625 0.09375 1.03125 0.1875q0.46875 0.078125 0.6875 0.15625l-0.59375 3.03125q-0.40625 -0.15625 -1.359375 -0.359375q-0.953125 -0.203125 -2.453125 -0.203125q-0.96875 0 -1.921875 0.203125q-0.953125 0.203125 -1.25 0.28125l0 16.3125l-3.46875 0l0 -18.59375q1.234375 -0.4375 3.0625 -0.828125q1.828125 -0.40625 4.109375 -0.40625zm24.377472 10.125q0 2.3125 -0.671875 4.1875q-0.671875 1.859375 -1.890625 3.203125q-1.21875 1.34375 -2.90625 2.078125q-1.671875 0.71875 -3.640625 0.71875q-1.984375 0 -3.671875 -0.71875q-1.671875 -0.734375 -2.890625 -2.078125q-1.203125 -1.34375 -1.875 -3.203125q-0.671875 -1.875 -0.671875 -4.1875q0 -2.28125 0.671875 -4.15625q0.671875 -1.890625 1.875 -3.234375q1.21875 -1.34375 2.890625 -2.0625q1.6875 -0.734375 3.671875 -0.734375q1.96875 0 3.640625 0.734375q1.6875 0.71875 2.90625 2.0625q1.21875 1.34375 1.890625 3.234375q0.671875 1.875 0.671875 4.15625zm-3.625 0q0 -3.28125 -1.484375 -5.203125q-1.46875 -1.921875 -4.0 -1.921875q-2.546875 0 -4.015625 1.921875q-1.46875 1.921875 -1.46875 5.203125q0 3.28125 1.46875 5.203125q1.46875 1.921875 4.015625 1.921875q2.53125 0 4.0 -1.921875q1.484375 -1.921875 1.484375 -5.203125zm23.365234 7.125q5.671875 0 5.671875 -3.875q0 -1.203125 -0.5 -2.03125q-0.5 -0.84375 -1.359375 -1.453125q-0.859375 -0.625 -1.96875 -1.0625q-1.09375 -0.453125 -2.328125 -0.90625q-1.421875 -0.484375 -2.6875 -1.09375q-1.265625 -0.625 -2.203125 -1.453125q-0.9375 -0.84375 -1.484375 -2.0q-0.53125 -1.171875 -0.53125 -2.8125q0 -3.390625 2.3125 -5.296875q2.3125 -1.90625 6.390625 -1.90625q2.34375 0 4.265625 0.515625q1.921875 0.5 2.828125 1.09375l-1.15625 2.953125q-0.796875 -0.484375 -2.34375 -0.953125q-1.546875 -0.46875 -3.59375 -0.46875q-1.046875 0 -1.953125 0.234375q-0.890625 0.21875 -1.5625 0.671875q-0.671875 0.4375 -1.0625 1.125q-0.390625 0.6875 -0.390625 1.625q0 1.046875 0.40625 1.765625q0.421875 0.703125 1.15625 1.25q0.75 0.53125 1.734375 0.984375q1.0 0.4375 2.1875 0.890625q1.6875 0.671875 3.078125 1.34375q1.40625 0.671875 2.421875 1.609375q1.03125 0.921875 1.59375 2.21875q0.5625 1.28125 0.5625 3.109375q0 3.40625 -2.484375 5.234375q-2.484375 1.828125 -7.0 1.828125q-1.53125 0 -2.828125 -0.203125q-1.28125 -0.203125 -2.296875 -0.484375q-1.0 -0.28125 -1.734375 -0.59375q-0.71875 -0.328125 -1.125 -0.546875l1.078125 -2.984375q0.859375 0.484375 2.609375 1.078125q1.765625 0.59375 4.296875 0.59375zm16.874237 -16.828125l7.359375 0l0 2.90625l-7.359375 0l0 8.953125q0 1.46875 0.21875 2.421875q0.234375 0.9375 0.671875 1.484375q0.453125 0.546875 1.125 0.765625q0.671875 0.21875 1.5625 0.21875q1.578125 0 2.515625 -0.34375q0.953125 -0.359375 1.328125 -0.515625l0.671875 2.875q-0.515625 0.265625 -1.828125 0.65625q-1.296875 0.390625 -2.984375 0.390625q-1.96875 0 -3.265625 -0.5q-1.28125 -0.5 -2.078125 -1.5q-0.78125 -1.015625 -1.09375 -2.484375q-0.3125 -1.484375 -0.3125 -3.421875l0 -17.328125l3.46875 -0.59375l0 6.015625zm18.927826 -0.421875q0.4375 0 1.015625 0.0625q0.59375 0.0625 1.140625 0.15625q0.5625 0.09375 1.03125 0.1875q0.46875 0.078125 0.6875 0.15625l-0.59375 3.03125q-0.40625 -0.15625 -1.359375 -0.359375q-0.953125 -0.203125 -2.453125 -0.203125q-0.96875 0 -1.921875 0.203125q-0.953125 0.203125 -1.25 0.28125l0 16.3125l-3.46875 0l0 -18.59375q1.234375 -0.4375 3.0625 -0.828125q1.828125 -0.40625 4.109375 -0.40625zm22.689941 19.265625q-1.1875 0.296875 -3.15625 0.625q-1.953125 0.34375 -4.53125 0.34375q-2.234375 0 -3.765625 -0.640625q-1.53125 -0.65625 -2.46875 -1.84375q-0.9375 -1.203125 -1.34375 -2.828125q-0.40625 -1.625 -0.40625 -3.609375l0 -10.890625l3.46875 0l0 10.15625q0 3.53125 1.109375 5.0625q1.125 1.53125 3.78125 1.53125q0.5625 0 1.15625 -0.03125q0.59375 -0.03125 1.109375 -0.09375q0.53125 -0.0625 0.953125 -0.109375q0.4375 -0.0625 0.625 -0.140625l0 -16.375l3.46875 0l0 18.84375zm5.973297 -18.28125q1.203125 -0.3125 3.171875 -0.640625q1.984375 -0.34375 4.5625 -0.34375q2.3125 0 3.84375 0.65625q1.53125 0.65625 2.4375 1.84375q0.921875 1.171875 1.296875 2.8125q0.375 1.640625 0.375 3.609375l0 10.90625l-3.484375 0l0 -10.15625q0 -1.78125 -0.25 -3.046875q-0.234375 -1.28125 -0.796875 -2.0625q-0.546875 -0.78125 -1.484375 -1.140625q-0.9375 -0.359375 -2.3125 -0.359375q-0.5625 0 -1.171875 0.046875q-0.59375 0.03125 -1.140625 0.09375q-0.53125 0.046875 -0.96875 0.125q-0.421875 0.078125 -0.609375 0.109375l0 16.390625l-3.46875 0l0 -18.84375zm24.895172 18.84375l-3.46875 0l0 -19.40625l3.46875 0l0 19.40625zm-1.75 -22.921875q-0.9375 0 -1.59375 -0.609375q-0.640625 -0.625 -0.640625 -1.671875q0 -1.03125 0.640625 -1.640625q0.65625 -0.625 1.59375 -0.625q0.9375 0 1.578125 0.625q0.65625 0.609375 0.65625 1.640625q0 1.046875 -0.65625 1.671875q-0.640625 0.609375 -1.578125 0.609375zm7.725281 4.078125q1.203125 -0.3125 3.171875 -0.640625q1.984375 -0.34375 4.5625 -0.34375q2.3125 0 3.84375 0.65625q1.53125 0.65625 2.4375 1.84375q0.921875 1.171875 1.296875 2.8125q0.375 1.640625 0.375 3.609375l0 10.90625l-3.484375 0l0 -10.15625q0 -1.78125 -0.25 -3.046875q-0.234375 -1.28125 -0.796875 -2.0625q-0.546875 -0.78125 -1.484375 -1.140625q-0.9375 -0.359375 -2.3125 -0.359375q-0.5625 0 -1.171875 0.046875q-0.59375 0.03125 -1.140625 0.09375q-0.53125 0.046875 -0.96875 0.125q-0.421875 0.078125 -0.609375 0.109375l0 16.390625l-3.46875 0l0 -18.84375zm25.082672 14.59375q0.046875 0.296875 0.046875 0.578125q0 0.28125 0 0.578125q0 2.34375 -0.703125 4.640625q-0.6875 2.296875 -1.875 4.390625l-2.6875 -0.859375q0.9375 -1.90625 1.234375 -3.875q0.296875 -1.953125 0.296875 -3.671875q0 -0.484375 -0.03125 -0.921875q-0.015625 -0.453125 -0.046875 -0.859375l3.765625 0zm25.977417 0.671875q-0.359375 -0.90625 -0.984375 -2.28125q-0.609375 -1.375 -1.328125 -2.984375q-0.703125 -1.609375 -1.515625 -3.296875q-0.796875 -1.703125 -1.515625 -3.21875q-0.703125 -1.515625 -1.3125 -2.703125q-0.609375 -1.203125 -0.984375 -1.828125q-0.421875 4.40625 -0.6875 9.546875q-0.25 5.125 -0.4375 10.34375l-3.546875 0q0.15625 -3.359375 0.34375 -6.765625q0.1875 -3.421875 0.421875 -6.71875q0.25 -3.3125 0.515625 -6.4375q0.28125 -3.140625 0.625 -5.953125l3.171875 0q1.0 1.65625 2.15625 3.890625q1.171875 2.234375 2.328125 4.6875q1.15625 2.4375 2.234375 4.890625q1.078125 2.4375 1.984375 4.453125q0.890625 -2.015625 1.96875 -4.453125q1.09375 -2.453125 2.25 -4.890625q1.15625 -2.453125 2.3125 -4.6875q1.15625 -2.234375 2.15625 -3.890625l3.171875 0q1.28125 12.515625 1.90625 25.875l-3.546875 0q-0.1875 -5.21875 -0.453125 -10.34375q-0.25 -5.140625 -0.65625 -9.546875q-0.375 0.625 -1.0 1.828125q-0.609375 1.1875 -1.328125 2.703125q-0.703125 1.515625 -1.515625 3.21875q-0.796875 1.6875 -1.5 3.296875q-0.703125 1.609375 -1.328125 2.984375q-0.609375 1.375 -0.984375 2.28125l-2.921875 0zm19.872253 -9.375q0 -3.328125 0.984375 -5.859375q0.98443604 -2.546875 2.687561 -4.234375q1.703125 -1.703125 3.953125 -2.5625q2.265625 -0.859375 4.796875 -0.859375q2.5 0 4.71875 0.859375q2.21875 0.859375 3.890625 2.5625q1.6875 1.6875 2.671875 4.234375q1.0 2.53125 1.0 5.859375q0 3.328125 -1.0 5.875q-0.984375 2.53125 -2.671875 4.234375q-1.671875 1.6875 -3.890625 2.546875q-2.21875 0.859375 -4.71875 0.859375q-2.53125 0 -4.796875 -0.859375q-2.25 -0.859375 -3.953125 -2.546875q-1.703125 -1.703125 -2.687561 -4.234375q-0.984375 -2.546875 -0.984375 -5.875zm3.796936 0q0 2.359375 0.59375 4.28125q0.609375 1.921875 1.703125 3.265625q1.109375 1.34375 2.6875 2.078125q1.59375 0.71875 3.5625 0.71875q1.984375 0 3.546875 -0.71875q1.578125 -0.734375 2.671875 -2.078125q1.109375 -1.34375 1.703125 -3.265625q0.59375 -1.921875 0.59375 -4.28125q0 -2.34375 -0.59375 -4.265625q-0.59375 -1.9375 -1.703125 -3.28125q-1.09375 -1.34375 -2.671875 -2.0625q-1.5625 -0.734375 -3.546875 -0.734375q-1.96875 0 -3.5625 0.734375q-1.578125 0.71875 -2.6875 2.0625q-1.09375 1.34375 -1.703125 3.28125q-0.59375 1.921875 -0.59375 4.265625zm33.26013 13.171875q-0.78125 0 -1.703125 -0.03125q-0.90625 -0.03125 -1.828125 -0.109375q-0.90625 -0.078125 -1.8125 -0.1875q-0.890625 -0.109375 -1.640625 -0.296875l0 -25.09375q0.75 -0.1875 1.640625 -0.296875q0.90625 -0.109375 1.8125 -0.1875q0.921875 -0.078125 1.8125 -0.109375q0.90625 -0.03125 1.6875 -0.03125q2.234375 0 4.1875 0.34375q1.96875 0.328125 3.40625 1.125q1.4375 0.796875 2.25 2.109375q0.828125 1.3125 0.828125 3.203125q0 2.140625 -1.015625 3.5q-1.0 1.359375 -2.671875 2.03125q2.265625 0.671875 3.609375 2.125q1.34375 1.453125 1.34375 4.109375q0 3.875 -2.859375 5.84375q-2.84375 1.953125 -9.046875 1.953125zm-3.390625 -12.28125l0 9.109375q0.40625 0.046875 0.96875 0.078125q0.484375 0.03125 1.140625 0.0625q0.65625 0.015625 1.515625 0.015625q1.59375 0 3.03125 -0.203125q1.4375 -0.203125 2.515625 -0.71875q1.09375 -0.53125 1.734375 -1.46875q0.65625 -0.9375 0.65625 -2.359375q0 -1.265625 -0.484375 -2.140625q-0.484375 -0.875 -1.40625 -1.390625q-0.90625 -0.53125 -2.171875 -0.75q-1.265625 -0.234375 -2.84375 -0.234375l-4.65625 0zm0 -2.90625l3.796875 0q1.34375 0 2.53125 -0.1875q1.203125 -0.1875 2.078125 -0.671875q0.890625 -0.484375 1.390625 -1.265625q0.5 -0.78125 0.5 -1.984375q0 -1.109375 -0.53125 -1.875q-0.515625 -0.765625 -1.4375 -1.234375q-0.90625 -0.46875 -2.140625 -0.6875q-1.21875 -0.234375 -2.609375 -0.234375q-1.375 0 -2.171875 0.046875q-0.78125 0.03125 -1.40625 0.109375l0 7.984375zm37.7052 14.96875q-0.640625 -1.6875 -1.203125 -3.296875q-0.5625 -1.625 -1.15625 -3.3125l-11.71875 0l-2.359375 6.609375l-3.765625 0q1.5 -4.109375 2.796875 -7.59375q1.3125 -3.5 2.5625 -6.625q1.25 -3.140625 2.484375 -5.984375q1.234375 -2.859375 2.578125 -5.671875l3.3125 0q1.34375 2.8125 2.578125 5.671875q1.234375 2.84375 2.484375 5.984375q1.25 3.125 2.546875 6.625q1.3125 3.484375 2.8125 7.59375l-3.953125 0zm-3.40625 -9.59375q-1.1875 -3.25 -2.375 -6.28125q-1.171875 -3.046875 -2.4375 -5.84375q-1.3125 2.796875 -2.484375 5.84375q-1.171875 3.03125 -2.328125 6.28125l9.625 0zm26.46521 9.8125q-0.78125 0 -1.703125 -0.03125q-0.90625 -0.03125 -1.828125 -0.109375q-0.90625 -0.078125 -1.8125 -0.1875q-0.890625 -0.109375 -1.640625 -0.296875l0 -25.09375q0.75 -0.1875 1.640625 -0.296875q0.90625 -0.109375 1.8125 -0.1875q0.921875 -0.078125 1.8125 -0.109375q0.90625 -0.03125 1.6875 -0.03125q2.234375 0 4.1875 0.34375q1.96875 0.328125 3.40625 1.125q1.4375 0.796875 2.25 2.109375q0.828125 1.3125 0.828125 3.203125q0 2.140625 -1.015625 3.5q-1.0 1.359375 -2.671875 2.03125q2.265625 0.671875 3.609375 2.125q1.34375 1.453125 1.34375 4.109375q0 3.875 -2.859375 5.84375q-2.84375 1.953125 -9.046875 1.953125zm-3.390625 -12.28125l0 9.109375q0.40625 0.046875 0.96875 0.078125q0.484375 0.03125 1.140625 0.0625q0.65625 0.015625 1.515625 0.015625q1.59375 0 3.03125 -0.203125q1.4375 -0.203125 2.515625 -0.71875q1.09375 -0.53125 1.734375 -1.46875q0.65625 -0.9375 0.65625 -2.359375q0 -1.265625 -0.484375 -2.140625q-0.484375 -0.875 -1.40625 -1.390625q-0.90625 -0.53125 -2.171875 -0.75q-1.265625 -0.234375 -2.84375 -0.234375l-4.65625 0zm0 -2.90625l3.796875 0q1.34375 0 2.53125 -0.1875q1.203125 -0.1875 2.078125 -0.671875q0.890625 -0.484375 1.390625 -1.265625q0.5 -0.78125 0.5 -1.984375q0 -1.109375 -0.53125 -1.875q-0.515625 -0.765625 -1.4375 -1.234375q-0.90625 -0.46875 -2.140625 -0.6875q-1.21875 -0.234375 -2.609375 -0.234375q-1.375 0 -2.171875 0.046875q-0.78125 0.03125 -1.40625 0.109375l0 7.984375zm23.658325 14.96875l-3.46875 0l0 -19.40625l3.46875 0l0 19.40625zm-1.75 -22.921875q-0.9375 0 -1.59375 -0.609375q-0.640625 -0.625 -0.640625 -1.671875q0 -1.03125 0.640625 -1.640625q0.65625 -0.625 1.59375 -0.625q0.9375 0 1.578125 0.625q0.65625 0.609375 0.65625 1.640625q0 1.046875 -0.65625 1.671875q-0.640625 0.609375 -1.578125 0.609375zm24.865845 13.21875q0 2.3125 -0.671875 4.1875q-0.671875 1.859375 -1.890625 3.203125q-1.21875 1.34375 -2.90625 2.078125q-1.671875 0.71875 -3.640625 0.71875q-1.984375 0 -3.671875 -0.71875q-1.671875 -0.734375 -2.890625 -2.078125q-1.203125 -1.34375 -1.875 -3.203125q-0.671875 -1.875 -0.671875 -4.1875q0 -2.28125 0.671875 -4.15625q0.671875 -1.890625 1.875 -3.234375q1.21875 -1.34375 2.890625 -2.0625q1.6875 -0.734375 3.671875 -0.734375q1.96875 0 3.640625 0.734375q1.6875 0.71875 2.90625 2.0625q1.21875 1.34375 1.890625 3.234375q0.671875 1.875 0.671875 4.15625zm-3.625 0q0 -3.28125 -1.484375 -5.203125q-1.46875 -1.921875 -4.0 -1.921875q-2.546875 0 -4.015625 1.921875q-1.46875 1.921875 -1.46875 5.203125q0 3.28125 1.46875 5.203125q1.46875 1.921875 4.015625 1.921875q2.53125 0 4.0 -1.921875q1.484375 -1.921875 1.484375 -5.203125zm8.726807 -16.171875l3.625 0l0 25.875l-3.625 0l0 -25.875zm9.822571 7.03125q1.203125 -0.3125 3.171875 -0.640625q1.984375 -0.34375 4.5625 -0.34375q2.3125 0 3.84375 0.65625q1.53125 0.65625 2.4375 1.84375q0.921875 1.171875 1.296875 2.8125q0.375 1.640625 0.375 3.609375l0 10.90625l-3.484375 0l0 -10.15625q0 -1.78125 -0.25 -3.046875q-0.234375 -1.28125 -0.796875 -2.0625q-0.546875 -0.78125 -1.484375 -1.140625q-0.9375 -0.359375 -2.3125 -0.359375q-0.5625 0 -1.171875 0.046875q-0.59375 0.03125 -1.140625 0.09375q-0.53125 0.046875 -0.96875 0.125q-0.421875 0.078125 -0.609375 0.109375l0 16.390625l-3.46875 0l0 -18.84375zm29.004578 -10.125q1.53125 0 2.625 0.234375q1.109375 0.21875 1.5625 0.40625l-0.640625 2.984375q-0.453125 -0.21875 -1.28125 -0.421875q-0.8125 -0.21875 -2.0 -0.21875q-2.421875 0 -3.40625 1.328125q-0.96875 1.328125 -0.96875 3.5625l0 1.6875l7.46875 0l0 2.90625l-7.46875 0l0 16.5l-3.46875 0l0 -21.171875q0 -3.71875 1.828125 -5.75q1.828125 -2.046875 5.75 -2.046875z" fill-rule="nonzero"/></g></svg>